<?xml version="1.0" encoding="UTF-8"?>
<svg xmlns="http://www.w3.org/2000/svg" viewBox="0 0 64.15 64.15">
  <defs>
    <style>
      .cls-1 {
        fill: #eae21c;
        stroke: #67bb8d;
        stroke-miterlimit: 10;
        stroke-width: .15px;
      }

      .cls-2 {
        fill: #9a145c;
      }

      .cls-3 {
        fill: #402771;
      }
    </style>
  </defs>
  <g id="katman_2" data-name="katman 2">
    <rect class="cls-1" x=".08" y=".08" width="64" height="64"/>
  </g>
  <g id="katman_1" data-name="katman 1">
    <g>
      <path class="cls-2" d="m7.15,57.05c10.04-11.89,17.05-25.99,23.96-39.94,1.03-2.07,2.07-4.19,2.4-6.49.15-1.05.15-2.13.45-3.15"/>
      <path class="cls-3" d="m36.05,9.41c-.05.24-.1.48-.15.71-.1.59-.25,1.29-.43,1.92-.18.63-.39,1.24-.62,1.83-.46,1.18-1,2.26-1.54,3.31-1.07,2.06-2.15,4.15-3.39,6.32-1.8,3-3.5,6.62-5.16,9.7,2.07-3.6,4.03-7.37,6.02-11.07,1-1.87,1.99-3.65,3.03-5.51.52-.95,1.03-1.94,1.48-3.02.22-.54.43-1.1.6-1.68.18-.57.32-1.22.43-1.74.25.9.27,2.29-.15,3.55-.56,1.52-1.24,2.85-1.88,4.06-.63,1.19-1.25,2.35-1.87,3.51-.12-.06-.36-.18-.48-.24-2.97,6.88-7.1,12.64-10.32,19.49.2-.2.21,0,.26.09l-.03.05.03-.05c.04.08.11.09.35-.32-.24.41-.3.4-.35.32,3.64-6.5,6.89-12.61,10.4-19.07-5.31,10.09-10.13,20.15-17.03,29.95-.28.42-.9,1.24-1.2,1.65-.76.71-1.48,1.44-2.18,2.19-.68.76-1.35,1.53-2,2.32-.21-.82-2.5-.11.21-3.07-.11-.08-.32-.25-.43-.33-3.03,2.71-5.38,2.54-3.35-.78,2.33-3.69,6.09-8.14,8.66-12.87,1.92-3.4,3.72-6.87,5.81-10.21,2.91-4.58,5.43-9.97,8.34-14.63.5-.85,1.01-2.05,1.36-3.08.36-1.04.54-1.9.8-2.26.28-.54.56-.58.87-.44-.33,2.84-2.01,5.61-3.46,8.52-1.89,3.47-3.81,6.92-5.87,10.28,2.11-3.23,4.01-6.71,5.87-10.28,1.51-2.87,3.25-5.54,3.71-8.39.26.14.53.29.82.13,0,0,.1-.99.15-1.48.46-.99.99-1.19,1.37-1.07.39.13.69.5.97.93.1.22.23.47.35.78Z"/>
    </g>
    <g>
      <path class="cls-2" d="m34.24,9.65c1.42,4.86,3.67,9.43,5.87,13.99,2.32,4.82,4.58,9.67,6.84,14.51.87,1.86,1.74,3.72,2.69,5.53,1.87,3.57,4.07,6.98,6.55,10.16"/>
      <path class="cls-3" d="m53.34,54.09c-.11-.2-.22-.39-.32-.58-2.02-3.48-4.3-6.86-5.93-10.97-1.12-2.89-2.72-5.96-4-8.7.73,1.66,1.46,3.31,2.19,4.98.76,1.68,1.53,3.36,2.3,5.06,1.55,3.4,3.37,6.68,5.1,9.85-.68-.4-1.4-.97-1.97-1.81-1.27-2.1-2.44-4.22-3.51-6.36.12-.06.35-.19.47-.25-3.35-5.81-4.87-11.71-8.27-17.3.03.24-.12.16-.22.16l-.02-.04.02.04c-.09,0-.13.04.04.41-.17-.36-.13-.41-.04-.41,2.86,5.73,5.19,11.12,7.89,17.15-1.08-2.31-2.14-4.57-3.19-6.82-1.05-2.21-2.09-4.41-3.14-6.62-1.06-2.2-2.13-4.41-3.2-6.64-1.08-2.22-2.21-4.48-3.27-6.88-.18-.41-.53-1.23-.71-1.65-.32-1.82-.84-3.55-1.39-5.28.79.21,1.49-1.86,2.39,1.54.13-.05.38-.14.51-.19-.29-1.75,0-3.08.51-3.55.52-.48,1.23-.13,1.99,1.32.84,1.65,1.64,3.65,2.56,5.78.91,2.12,1.94,4.37,3.09,6.47,1.6,3.08,3.21,6.17,4.44,9.42.84,2.24,1.84,4.56,2.83,6.76.49,1.12.99,2.23,1.45,3.35.46,1.02.93,2.06,1.45,3.21.72,1.53,2.69,3.73,2.86,4.63.19.6-.02.79-.34.9-1.6-2.28-3.07-4.65-4.34-7.08-.75-1.5-1.37-3.11-2.04-4.67-.66-1.56-1.3-3.16-1.91-4.78.55,1.61,1.16,3.21,1.83,4.76.68,1.55,1.33,3.18,2.13,4.68,1.21,2.46,2.58,4.85,4.08,7.16-.28.08-.57.17-.69.46,0,0,.51.69.77,1.04.51,1.78-.48,2.03-1.56,1.74-.25-.1-.52-.21-.82-.35Z"/>
    </g>
    <g>
      <path class="cls-2" d="m55.87,52.64c-3.37-2.74-7.9-4.92-12.74-6.74-4.84-1.82-10.01-3.3-15.09-4.87-2.35-.73-4.68-1.48-6.8-2.42-.78-.34-1.53-.71-2.4-.97-.54-.16-1.13-.27-1.7-.38-2.21-.42-4.42-.83-6.64-1.25"/>
      <path class="cls-3" d="m12.4,33.92c.2.07.4.13.6.2.92.28,1.85.52,2.79.74.93.22,1.87.42,2.97.7.51.11,1.11.3,1.65.53.53.22,1.02.46,1.46.68.86.42,1.76.82,2.71,1.23,2.63,1.22,5.96,2.05,8.81,2.93-3.33-1.17-6.84-2.19-9.99-3.54-.81-.34-1.48-.7-2.36-1.13-.44-.21-.92-.43-1.44-.62-.5-.17-.96-.28-1.44-.43-.84-.24-1.7-.48-2.6-.74-.84-.25-1.66-.5-2.47-.77.73-.19,1.59-.29,2.52-.11.56.14,1.12.27,1.67.4l.9.22.97.25c.6.13,1.42.44,2.01.71.52.25,1.05.5,1.56.74-.05.13-.16.37-.21.49,3.09,1.09,5.7,2.01,8.57,3.02,2.91,1.03,5.85,2.02,9.03,2.73-.2-.14-.03-.2.04-.27h.04s-.04,0-.04,0c.07-.06.06-.12-.33-.25.38.13.39.19.33.25-3.06-.95-5.99-1.83-8.87-2.77-2.88-.94-5.76-1.88-8.35-3.11,2.03.92,4.25,1.65,6.54,2.37,2.31.7,4.6,1.4,6.91,2.11,4.64,1.43,9.4,2.93,14.16,5.25.4.2,1.21.61,1.61.83,1.41,1.22,2.89,2.28,4.38,3.39-.39.13-.41.74-.69,1.02-.29.28-.77.21-2.15-.86-.07.11-.22.34-.29.45,1.27,1.22,1.76,2.46,1.6,3.12-.17.69-.92.79-2.31.14-3.07-1.55-7.24-4.06-11.63-5.35-3.15-1-6.39-1.86-9.56-3.11-2.18-.88-4.5-1.64-6.87-2.51-1.19-.44-2.38-.91-3.56-1.47-.58-.27-1.19-.6-1.67-.86-.49-.27-.87-.49-1.28-.66-.35-.11-.78-.2-1.24-.29-.47-.09-1.07-.16-1.58-.25-1.05-.16-1.99-.34-2.38-.62-.57-.3-.54-.59-.39-.89,1.38.28,2.74.55,4.11.83.66.14,1.27.29,1.87.44.55.18,1.1.44,1.73.74,3.17,1.6,6.45,2.7,9.6,3.96-3.04-1.34-6.33-2.41-9.6-3.96-.62-.31-1.17-.59-1.71-.79-.59-.17-1.2-.33-1.84-.5-1.33-.32-2.67-.63-4.02-.96.15-.25.3-.52.18-.81,0,0-.84-.16-1.26-.24-1.55-.98-.96-1.83,0-2.33.24-.09.51-.2.8-.3Z"/>
    </g>
  </g>
</svg>